<?xml version="1.0" encoding="UTF-8"?>
<svg id="Camada_2" data-name="Camada 2" xmlns="http://www.w3.org/2000/svg" viewBox="0 0 366.71 78.83">
  <defs>
    <style>
      .cls-1 {
        fill: #f2f2f3;
      }

      .cls-2 {
        fill: #e4f67b;
      }

      .cls-3 {
        fill: #c5dc3a;
      }
    </style>
  </defs>
  <g id="Camada_1-2" data-name="Camada 1">
    <g>
      <g>
        <path class="cls-3" d="M361.29,7.41c-3.82-4.09-9.72-6.16-17.54-6.16-6.02,0-13.84,1.24-20.9,3.31l-.56.16-3.36,48.62c-.23,3.39.91,6.63,3.23,9.11,2.32,2.49,5.47,3.85,8.87,3.85h.78l.88-12.76c2.76,1.4,6.32,2.24,9.64,2.24,6.86,0,12.7-2.48,16.88-7.17,4.29-4.82,6.77-11.71,7.37-20.48.64-9.29-1.14-16.26-5.3-20.71ZM352.65,28.89c-.48,6.97-2.75,15.29-10.85,15.29-2.78,0-6.35-.54-8.32-2.02l1.97-28.54c2.18-.63,4.67-.99,6.92-.99,3.13,0,5.58.92,7.26,2.73,2.45,2.62,3.46,7.17,3.02,13.53Z"/>
        <path class="cls-3" d="M316.29,4.61h-12.75l-2.31,33.4c-.31,4.49-5.07,8.74-9.79,8.74-2.32,0-3.95-.54-4.98-1.64-1.34-1.43-1.78-3.82-1.5-7.98l2.24-32.53h-13.78l-2.39,34.59c-.42,6.11.82,10.77,3.7,13.85,2.78,2.98,7.09,4.49,12.81,4.49s10.97-2.19,14.74-6.21l.34,4.82h10.41l-.09-.92c-.06-.6-.07-1.21-.03-1.8l3.37-48.83Z"/>
      </g>
      <path class="cls-1" d="M132.69,40.37c-2.87,3.39-6.4,5.14-10.48,5.21-3.63.07-6.38-.89-8.16-2.87-2.28-2.52-3.09-6.8-2.41-12.71.83-5.97,2.75-10.28,5.69-12.83,2.29-1.98,5.27-2.95,8.87-2.9,4.06.13,7.14,1.9,9.15,5.26l.23.38,8.98-7.37-.21-.31c-1.85-2.74-4.2-4.96-6.98-6.6-2.79-1.61-6.19-2.46-10.11-2.53-5.97-.07-11.56,2.03-16.61,6.22-5.23,4.27-8.55,11.22-9.89,20.68-1.06,9.35.5,16.22,4.64,20.41,3.97,4.19,9.02,6.32,15,6.32,3.94-.07,7.57-.97,10.78-2.67,3.19-1.63,6.09-3.77,8.63-6.37l.3-.31-7.11-7.4-.32.38Z"/>
      <path class="cls-1" d="M120.42,57.36c-6.17,0-11.37-2.19-15.46-6.51-4.27-4.33-5.89-11.37-4.8-20.91,1.36-9.63,4.76-16.72,10.11-21.09,5.16-4.29,10.87-6.43,17.01-6.36,4.03.07,7.53.95,10.42,2.61,2.86,1.69,5.28,3.97,7.18,6.79l.53.78-9.99,8.19-.6-1c-1.9-3.17-4.8-4.83-8.64-4.96-3.44-.03-6.28.88-8.44,2.75-2.83,2.45-4.67,6.63-5.48,12.45-.66,5.71.1,9.82,2.25,12.2,1.65,1.83,4.24,2.73,7.69,2.66,3.9-.06,7.27-1.74,10.02-4.99l.77-.91,8.01,8.34-.72.74c-2.58,2.65-5.54,4.83-8.79,6.49-3.29,1.75-7.02,2.67-11.06,2.74ZM126.99,3.73c-5.72,0-11.07,2.04-15.93,6.07-5.1,4.17-8.36,10.99-9.67,20.28-1.04,9.13.46,15.83,4.46,19.88,3.86,4.07,8.75,6.13,14.55,6.13,3.83-.07,7.37-.94,10.49-2.6,3.09-1.58,5.89-3.64,8.35-6.13l-6.21-6.47c-2.97,3.44-6.61,5.22-10.83,5.28-3.82.08-6.73-.96-8.64-3.07-2.41-2.66-3.27-7.11-2.57-13.2.85-6.14,2.84-10.58,5.9-13.24,2.4-2.08,5.51-3.1,9.29-3.05,4.2.13,7.4,1.92,9.53,5.32l7.98-6.55c-1.78-2.58-4.02-4.68-6.66-6.24-2.69-1.55-5.99-2.38-9.8-2.44-.09,0-.18,0-.27,0Z"/>
      <path class="cls-1" d="M183.51,9.9c-1.12-1.75-2.83-3.33-5.1-4.71-2.32-1.32-5.51-2.02-9.51-2.08-3.87.07-7.18.76-9.84,2.08-2.68,1.37-4.87,2.95-6.47,4.67-2.15,1.99-3.89,4.48-5.18,7.38-1.25,2.94-2.24,7.2-2.93,12.66s-.79,9.67-.28,12.54c.54,2.89,1.64,5.43,3.25,7.54,1.2,1.66,2.99,3.16,5.31,4.46,2.3,1.45,5.43,2.22,9.3,2.29,4-.07,7.38-.84,10.04-2.28,1.41-.61,2.62-1.35,3.59-2.19,1.03-.74,1.94-1.5,2.67-2.26,2.3-2.13,4.08-4.67,5.3-7.57,1.17-2.87,2.12-7.09,2.82-12.53s.83-9.69.4-12.63c-.48-2.89-1.61-5.37-3.37-7.36ZM162.8,15.27c1.47-.67,3.04-1.01,4.67-1.01,1.76,0,3.27.34,4.52,1.01,1.29.63,2.22,1.5,2.77,2.59l.02.04c.8,1.17,1.26,2.55,1.37,4.1.1,1.66-.08,4.35-.55,7.99s-.93,6.07-1.46,7.7c-.51,1.62-1.34,3.07-2.45,4.31-.82.94-1.98,1.79-3.46,2.52-1.4.7-3.01,1.05-4.76,1.05-1.63,0-3.11-.35-4.39-1.04-1.23-.73-2.21-1.58-2.92-2.53-.67-1.24-1.09-2.7-1.25-4.32-.17-1.62-.03-4.24.42-7.78s.99-6.23,1.57-7.88c.57-1.57,1.36-2.96,2.34-4.13.96-1.1,2.16-1.98,3.55-2.61Z"/>
      <path class="cls-1" d="M162.07,57.36c-4.01-.07-7.25-.87-9.65-2.39-2.38-1.33-4.23-2.89-5.48-4.62-1.67-2.18-2.8-4.81-3.36-7.8-.52-2.94-.43-7.23.28-12.74.7-5.51,1.7-9.83,2.98-12.82,1.32-2.98,3.11-5.53,5.31-7.58,1.66-1.78,3.89-3.39,6.63-4.79,2.75-1.36,6.15-2.08,10.11-2.15,4.12.07,7.42.8,9.83,2.17,2.34,1.42,4.12,3.06,5.29,4.88,1.82,2.07,2.99,4.64,3.48,7.64.44,3.01.31,7.32-.39,12.81-.7,5.49-1.66,9.76-2.86,12.69-1.26,2.99-3.09,5.61-5.45,7.8-.74.76-1.65,1.54-2.71,2.29-1,.88-2.25,1.64-3.7,2.27-2.75,1.49-6.22,2.27-10.31,2.34ZM168.89,3.74c-3.76.06-6.98.74-9.55,2.01-2.61,1.33-4.73,2.86-6.29,4.54l-.03.03c-2.09,1.94-3.78,4.35-5.03,7.18-1.22,2.88-2.19,7.08-2.88,12.48-.69,5.38-.78,9.54-.29,12.35.52,2.79,1.58,5.24,3.13,7.27,1.15,1.59,2.87,3.03,5.12,4.29,2.23,1.41,5.25,2.15,9.01,2.21,3.87-.07,7.16-.81,9.73-2.21l.05-.02c1.35-.58,2.5-1.29,3.42-2.09l.05-.04c1-.72,1.87-1.45,2.58-2.19,2.25-2.09,3.99-4.56,5.17-7.38,1.15-2.82,2.08-6.98,2.77-12.36.69-5.38.82-9.58.4-12.46-.45-2.76-1.54-5.14-3.22-7.04l-.06-.08c-1.07-1.67-2.72-3.19-4.9-4.51-2.21-1.25-5.31-1.93-9.19-1.99ZM163.48,46.2c-1.73,0-3.31-.38-4.69-1.12-1.32-.79-2.37-1.69-3.12-2.71l-.05-.08c-.71-1.32-1.16-2.85-1.33-4.56-.18-1.66-.03-4.33.43-7.92.46-3.62,1-6.31,1.6-8.01.6-1.64,1.42-3.09,2.44-4.32,1.03-1.18,2.3-2.11,3.78-2.78h0c1.55-.7,3.21-1.06,4.93-1.06,1.86,0,3.48.36,4.81,1.08,1.39.68,2.42,1.64,3.03,2.85h0c.84,1.23,1.34,2.72,1.45,4.38.11,1.7-.08,4.43-.55,8.12-.45,3.52-.95,6.14-1.48,7.81-.54,1.7-1.41,3.23-2.58,4.54-.87,1-2.1,1.9-3.65,2.66-1.49.74-3.19,1.11-5.04,1.11ZM156.7,41.66c.66.87,1.57,1.65,2.71,2.33,1.17.63,2.55.96,4.07.96,1.66,0,3.16-.33,4.48-.98,1.4-.69,2.5-1.49,3.26-2.37,1.06-1.18,1.84-2.56,2.33-4.09.51-1.59.99-4.14,1.43-7.58.46-3.61.64-6.26.54-7.88-.1-1.43-.52-2.71-1.26-3.79l-.04-.07c-.51-1-1.35-1.78-2.51-2.34-1.17-.63-2.59-.94-4.24-.94-1.54,0-3.03.32-4.41.95h0c-1.31.59-2.44,1.42-3.34,2.46-.92,1.11-1.67,2.44-2.22,3.93-.57,1.61-1.09,4.21-1.54,7.74-.45,3.49-.59,6.06-.42,7.63.15,1.53.54,2.89,1.16,4.05Z"/>
      <path class="cls-1" d="M266.01,25.33c.81-6.87-.59-12.35-4.16-16.29-3.51-3.87-8.22-5.86-14.01-5.93-2.41,0-4.94.46-7.53,1.37-2.63.91-5.12,2.41-7.41,4.47-2.25,2.02-4.25,4.81-5.96,8.29-1.7,3.41-2.89,7.73-3.54,12.86-.68,5.33-.5,9.73.53,13.06.89,3.49,2.3,6.25,4.22,8.21.99.94,2.1,1.75,3.26,2.37,1.11.74,2.29,1.34,3.52,1.78,2.43.8,5.01,1.21,7.66,1.21.08,0,.16,0,.24,0,6.89,0,13.33-2.85,19.14-8.48l.32-.31-7-6.95-.31.29c-3.53,3.25-7.31,4.89-11.25,4.89-3.37,0-5.98-1.06-7.78-3.17-1.88-1.99-2.62-4.92-2.22-8.72h31.13l1.14-8.95ZM255.18,24.91h-20.24c.71-3.69,2.08-6.53,4.06-8.42,2.08-1.87,4.6-2.82,7.49-2.82s5.17.95,6.76,2.81c1.57,1.9,2.21,4.74,1.93,8.43Z"/>
      <path class="cls-1" d="M242.82,57.36h-.25c-2.72,0-5.36-.42-7.85-1.24-1.27-.46-2.5-1.07-3.64-1.84-1.21-.65-2.35-1.48-3.37-2.46-2-2.06-3.48-4.92-4.39-8.51-1.05-3.39-1.23-7.87-.54-13.29.66-5.2,1.88-9.59,3.6-13.06,1.74-3.55,3.79-6.4,6.1-8.48,2.35-2.11,4.91-3.66,7.62-4.6,2.65-.93,5.25-1.4,7.73-1.4,5.97.07,10.84,2.13,14.47,6.13,3.7,4.08,5.15,9.72,4.31,16.78h0s-1.21,9.51-1.21,9.51h-31.11c-.26,3.33.44,5.91,2.1,7.66,1.7,1.98,4.15,2.97,7.33,2.97,3.78,0,7.42-1.59,10.82-4.73l.76-.7,7.88,7.83-.78.76c-5.94,5.74-12.52,8.65-19.58,8.65ZM247.84,3.74c-2.33,0-4.8.45-7.31,1.33-2.55.88-4.98,2.35-7.2,4.34-2.19,1.97-4.14,4.69-5.82,8.1-1.67,3.35-2.84,7.61-3.48,12.66-.67,5.24-.5,9.55.5,12.8.87,3.41,2.23,6.08,4.07,7.96.93.89,1.98,1.66,3.11,2.26l.05.03c1.07.71,2.21,1.29,3.38,1.71,2.35.78,4.86,1.17,7.45,1.17h.24c6.66,0,12.91-2.75,18.57-8.17l-6.12-6.08c-3.61,3.28-7.49,4.94-11.55,4.94-3.56,0-6.33-1.14-8.26-3.39-1.99-2.1-2.79-5.2-2.36-9.19l.06-.56h31.14l1.07-8.4c.79-6.68-.56-12-4-15.79-3.39-3.73-7.95-5.66-13.55-5.72ZM255.76,25.54h-21.58l.14-.75c.74-3.82,2.16-6.77,4.25-8.76,2.21-1.99,4.87-2.99,7.92-2.99s5.52,1.02,7.24,3.03c1.68,2.04,2.37,5.03,2.07,8.88l-.04.58ZM235.72,24.29h18.88c.17-3.24-.44-5.73-1.82-7.4-1.46-1.71-3.58-2.59-6.28-2.59s-5.11.89-7.07,2.66c-1.74,1.67-2.99,4.13-3.71,7.33Z"/>
      <path class="cls-1" d="M228.32,6.3c-2.54-2.06-5.65-3.13-9.26-3.19-5.18,0-9.72,1.89-13.5,5.63l.64-4.99h-10.86l-6.68,52.38h10.86l4.02-31.49c.52-3.63,1.88-6.29,4.06-7.91,1.95-1.64,4.18-2.47,6.63-2.47,2.17,0,4.19.84,6.01,2.5l.33.3,8.06-10.53-.29-.23Z"/>
      <path class="cls-1" d="M200.06,56.76h-12.12l6.84-53.64h12.12l-.51,4c3.63-3.08,7.89-4.64,12.66-4.64,3.76.06,7.01,1.18,9.66,3.33l.76.62-8.84,11.56-.83-.75c-1.7-1.55-3.59-2.33-5.59-2.33-2.29,0-4.39.78-6.22,2.32-2.06,1.53-3.34,4.06-3.84,7.52l-4.09,32.03ZM189.37,55.51h9.59l3.95-30.94c.55-3.81,2-6.61,4.3-8.33,2.04-1.71,4.4-2.6,7-2.6,2.26,0,4.36.84,6.26,2.5l7.27-9.5c-2.39-1.87-5.31-2.84-8.69-2.9-5,0-9.39,1.83-13.05,5.45l-1.29,1.28.78-6.08h-9.59l-6.52,51.13Z"/>
      <g>
        <polygon class="cls-3" points="84.61 0 68.85 0 35.2 0 32.9 16.5 53.15 16.5 31.48 35.51 41.52 47.18 63.95 27.49 60.4 47.42 76.9 47.42 85.35 0 84.61 0"/>
        <path class="cls-3" d="M17.09,60.99l1.32-9.47,3.55-25.44,1.42-10.21H5.91l-1.42,10.21L.93,51.52l-.72,5.14c-1.68,12.05,6.72,21.81,18.77,21.81h38.85s2.44-17.48,2.44-17.48H17.09Z"/>
      </g>
      <g>
        <path class="cls-2" d="M108.61,72.55l-.02,1.36-4.61.02c-.45.01-.77.13-.95.35s-.27.52-.27.91v.6c0,.48.12.83.35,1.05s.6.33,1.11.33c.37,0,.79-.07,1.25-.21.46-.14.93-.35,1.39-.64.47-.29.89-.65,1.26-1.09v1.26c-.13.19-.33.41-.6.67-.27.26-.59.51-.97.75-.38.24-.8.44-1.26.6-.46.16-.97.24-1.51.24-.59,0-1.11-.1-1.55-.31-.45-.21-.8-.51-1.05-.92-.25-.41-.38-.91-.38-1.49v-1.06c0-.76.24-1.36.73-1.78.49-.43,1.17-.64,2.04-.64h5.05ZM106.04,68.56c.75,0,1.38.1,1.9.29.51.19.9.52,1.16.99.26.47.39,1.11.39,1.93v6.82h-1.52l-.3-2.13-.12-.24v-4.45c-.01-.58-.15-.99-.41-1.24-.26-.25-.77-.38-1.51-.38-.51,0-1.15.03-1.92.08-.77.05-1.53.11-2.28.16l-.18-1.38c.45-.08.96-.15,1.51-.22.55-.07,1.12-.12,1.69-.16.57-.04,1.1-.06,1.58-.06Z"/>
        <path class="cls-2" d="M128.7,68.56c.31,0,.64.01,1.01.04.37.03.75.07,1.14.14.39.07.76.17,1.09.3l-.24,1.24c-.47-.04-.95-.07-1.43-.08-.49-.01-.91-.02-1.25-.02-.75,0-1.34.1-1.77.3-.43.2-.75.56-.93,1.06-.19.51-.28,1.22-.28,2.13s.09,1.62.28,2.15c.19.52.5.88.93,1.08.43.2,1.03.3,1.77.3.2,0,.46,0,.78-.02.32-.01.67-.03,1.04-.06s.74-.07,1.08-.12l.18,1.28c-.49.19-1.04.32-1.64.41s-1.2.13-1.78.13c-1.15,0-2.07-.17-2.76-.5s-1.19-.88-1.49-1.62-.46-1.76-.46-3.03.16-2.26.47-3.01c.31-.75.82-1.29,1.5-1.61.69-.33,1.61-.49,2.76-.49Z"/>
        <path class="cls-2" d="M153.65,72.55l-.02,1.36-4.61.02c-.45.01-.77.13-.95.35s-.27.52-.27.91v.6c0,.48.12.83.35,1.05s.6.33,1.11.33c.37,0,.79-.07,1.25-.21.46-.14.93-.35,1.39-.64.47-.29.89-.65,1.26-1.09v1.26c-.13.19-.33.41-.6.67-.27.26-.59.51-.97.75-.38.24-.8.44-1.26.6-.46.16-.97.24-1.51.24-.59,0-1.11-.1-1.55-.31-.45-.21-.8-.51-1.05-.92-.25-.41-.38-.91-.38-1.49v-1.06c0-.76.24-1.36.73-1.78.49-.43,1.17-.64,2.04-.64h5.05ZM151.09,68.56c.75,0,1.38.1,1.9.29.51.19.9.52,1.16.99.26.47.39,1.11.39,1.93v6.82h-1.52l-.3-2.13-.12-.24v-4.45c-.01-.58-.15-.99-.41-1.24-.26-.25-.77-.38-1.51-.38-.51,0-1.15.03-1.92.08-.77.05-1.53.11-2.28.16l-.18-1.38c.45-.08.96-.15,1.51-.22.55-.07,1.12-.12,1.69-.16.57-.04,1.1-.06,1.58-.06Z"/>
        <path class="cls-2" d="M172.76,68.56c.65,0,1.3.08,1.93.25s1.22.44,1.78.81l-.12,1.12c-.59-.19-1.11-.33-1.57-.43-.46-.1-.96-.15-1.49-.15s-.97.09-1.29.27c-.33.18-.57.53-.72,1.03s-.23,1.23-.23,2.17.07,1.64.22,2.16c.15.51.38.87.7,1.07s.73.3,1.22.3c.37,0,.71-.05,1.02-.14.31-.09.63-.25.96-.46.33-.21.73-.48,1.18-.8l.16,1.24c-.51.51-1.1.94-1.77,1.29-.68.35-1.42.53-2.24.53-1.23,0-2.11-.44-2.65-1.31-.54-.88-.8-2.16-.8-3.86,0-1.28.14-2.3.41-3.04.27-.74.69-1.27,1.23-1.58.55-.31,1.24-.47,2.07-.47ZM178.06,64.55v14.04h-1.52l-.22-1.72-.2-.16v-6.66l.12-.3c-.05-.38-.09-.74-.1-1.1s-.02-.74-.02-1.14v-2.95h1.95Z"/>
        <path class="cls-2" d="M197.23,68.56c1.51,0,2.6.27,3.28.81.68.54,1.01,1.34,1.01,2.4.01.88-.18,1.56-.57,2.04-.39.48-1.03.72-1.91.72h-5.66v-1.38h5.15c.44,0,.73-.14.86-.42.13-.28.2-.6.2-.96-.01-.6-.19-1.03-.53-1.27s-.93-.37-1.75-.37c-.68-.01-1.22.08-1.6.28-.39.2-.66.55-.81,1.04-.15.5-.23,1.19-.23,2.09,0,1,.1,1.77.29,2.3.19.53.51.89.94,1.09.43.2,1.01.3,1.73.3.51,0,1.08-.02,1.71-.07.63-.05,1.21-.1,1.73-.17l.2,1.26c-.32.13-.71.24-1.16.33s-.92.15-1.4.19c-.48.04-.92.06-1.32.06-1.15,0-2.07-.17-2.77-.52-.7-.35-1.2-.9-1.52-1.65-.32-.75-.48-1.75-.48-2.98s.16-2.3.48-3.05c.32-.75.82-1.28,1.5-1.59.68-.31,1.56-.47,2.63-.47Z"/>
        <path class="cls-2" d="M217.59,68.8l.14,1.89.2.28v7.62h-1.93v-9.79h1.58ZM221.66,68.56c.84,0,1.48.22,1.92.67.44.45.67,1.12.68,2.02v7.34h-1.87v-6.78c0-.59-.12-1.01-.36-1.25-.24-.25-.6-.37-1.08-.37-.32,0-.63.05-.92.15-.29.1-.62.26-.99.49-.37.23-.81.53-1.33.9l-.12-1.3c.7-.63,1.37-1.1,2.03-1.4.66-.31,1.34-.46,2.05-.46ZM228.01,68.56c.86,0,1.51.23,1.96.68.45.46.67,1.12.67,2.01v7.34h-1.93v-6.78c-.01-.56-.13-.97-.34-1.23s-.58-.39-1.1-.39c-.32,0-.63.05-.92.16-.29.11-.62.27-.98.49-.36.22-.79.52-1.3.89l-.1-1.3c.69-.63,1.37-1.1,2.03-1.4s1.33-.46,2.03-.46Z"/>
        <path class="cls-2" d="M247.11,64.61c.39,0,.58.19.58.58v1.14c0,.39-.19.58-.58.58h-.9c-.39,0-.58-.19-.58-.58v-1.14c0-.39.19-.58.58-.58h.9ZM247.61,68.8v9.79h-1.9v-9.79h1.9Z"/>
        <path class="cls-2" d="M270.01,72.55l-.02,1.36-4.61.02c-.46.01-.77.13-.95.35s-.27.52-.27.91v.6c0,.48.12.83.35,1.05s.61.33,1.11.33c.37,0,.79-.07,1.25-.21.46-.14.92-.35,1.39-.64.47-.29.89-.65,1.26-1.09v1.26c-.13.19-.33.41-.6.67s-.59.51-.97.75c-.38.24-.8.44-1.26.6-.46.16-.96.24-1.51.24-.59,0-1.11-.1-1.55-.31-.45-.21-.8-.51-1.05-.92s-.38-.91-.38-1.49v-1.06c0-.76.24-1.36.73-1.78s1.17-.64,2.04-.64h5.05ZM267.44,68.56c.75,0,1.38.1,1.9.29.51.19.9.52,1.16.99.26.47.39,1.11.39,1.93v6.82h-1.52l-.3-2.13-.12-.24v-4.45c-.01-.58-.15-.99-.41-1.24-.26-.25-.77-.38-1.51-.38-.51,0-1.15.03-1.92.08-.77.05-1.53.11-2.28.16l-.18-1.38c.46-.08.96-.15,1.51-.22.55-.07,1.12-.12,1.69-.16.58-.04,1.1-.06,1.58-.06Z"/>
      </g>
    </g>
  </g>
</svg>